<mxfile host="app.diagrams.net" modified="2021-02-04T17:12:32.403Z" agent="5.0 (Windows NT 10.0; Win64; x64) AppleWebKit/537.36 (KHTML, like Gecko) Chrome/88.0.4324.104 Safari/537.36" etag="SeNE2WmzdA1gaNsmjYja" version="14.1.7" type="github">
  <diagram id="n1JUjuh9U2ol9TRlmBy1" name="Page-1">
    <mxGraphModel dx="813" dy="435" grid="1" gridSize="10" guides="1" tooltips="1" connect="1" arrows="1" fold="1" page="1" pageScale="1" pageWidth="827" pageHeight="1169" math="0" shadow="0">
      <root>
        <mxCell id="0" />
        <mxCell id="1" parent="0" />
        <mxCell id="vLjzwp20AHgqUVEVgC3A-1" value="&lt;p style=&quot;margin: 0px ; margin-top: 4px ; margin-left: 7px ; text-align: left&quot;&gt;&lt;b&gt;req&lt;/b&gt;  Voiture CeC&lt;/p&gt;" style="html=1;shape=mxgraph.sysml.package;overflow=fill;labelX=110;strokeWidth=2;align=center;" vertex="1" parent="1">
          <mxGeometry x="10" y="10" width="790" height="490" as="geometry" />
        </mxCell>
        <mxCell id="vLjzwp20AHgqUVEVgC3A-2" value="&lt;p style=&quot;margin:0px;margin-top:4px;text-align:center;&quot;&gt;&amp;lt;&amp;lt;requirement&amp;gt;&amp;gt;&lt;br/&gt;&lt;b&gt;Requirement Name&lt;/b&gt;&lt;hr/&gt;&lt;/p&gt;&lt;p style=&quot;margin:0px;margin-left:8px;text-align:left;&quot;&gt;text=&quot;The system shall do&quot;&lt;br/&gt;Id=&quot;62j32.&quot;&lt;/p&gt;" style="shape=rect;overflow=fill;html=1;whiteSpace=wrap;align=center;" vertex="1" parent="1">
          <mxGeometry x="204" y="60" width="210" height="100" as="geometry" />
        </mxCell>
      </root>
    </mxGraphModel>
  </diagram>
</mxfile>
